<mxfile host="app.diagrams.net" agent="Mozilla/5.0 (X11; Linux x86_64; rv:123.0) Gecko/20100101 Firefox/123.0" version="24.8.4">
  <diagram name="Página-1" id="OhBMF1q1b0yXhTEaP9Sg">
    <mxGraphModel dx="1434" dy="754" grid="1" gridSize="10" guides="1" tooltips="1" connect="1" arrows="1" fold="1" page="1" pageScale="1" pageWidth="827" pageHeight="1169" math="0" shadow="0">
      <root>
        <mxCell id="0" />
        <mxCell id="1" parent="0" />
        <mxCell id="vzlOpPujUNnqAGXwKwH7-23" style="edgeStyle=orthogonalEdgeStyle;rounded=0;orthogonalLoop=1;jettySize=auto;html=1;exitX=0.5;exitY=0;exitDx=0;exitDy=0;exitPerimeter=0;entryX=0;entryY=0.5;entryDx=0;entryDy=0;" edge="1" parent="1" source="vzlOpPujUNnqAGXwKwH7-1" target="vzlOpPujUNnqAGXwKwH7-6">
          <mxGeometry relative="1" as="geometry" />
        </mxCell>
        <mxCell id="vzlOpPujUNnqAGXwKwH7-24" style="edgeStyle=orthogonalEdgeStyle;rounded=0;orthogonalLoop=1;jettySize=auto;html=1;exitX=0.75;exitY=0.1;exitDx=0;exitDy=0;exitPerimeter=0;entryX=0;entryY=0.5;entryDx=0;entryDy=0;" edge="1" parent="1" source="vzlOpPujUNnqAGXwKwH7-1" target="vzlOpPujUNnqAGXwKwH7-7">
          <mxGeometry relative="1" as="geometry" />
        </mxCell>
        <mxCell id="vzlOpPujUNnqAGXwKwH7-25" style="edgeStyle=orthogonalEdgeStyle;rounded=0;orthogonalLoop=1;jettySize=auto;html=1;exitX=1;exitY=0.3333333333333333;exitDx=0;exitDy=0;exitPerimeter=0;" edge="1" parent="1" source="vzlOpPujUNnqAGXwKwH7-1">
          <mxGeometry relative="1" as="geometry">
            <mxPoint x="230" y="160" as="targetPoint" />
          </mxGeometry>
        </mxCell>
        <mxCell id="vzlOpPujUNnqAGXwKwH7-26" style="edgeStyle=orthogonalEdgeStyle;rounded=0;orthogonalLoop=1;jettySize=auto;html=1;exitX=0.5;exitY=0.5;exitDx=0;exitDy=0;exitPerimeter=0;entryX=0;entryY=0.5;entryDx=0;entryDy=0;" edge="1" parent="1" source="vzlOpPujUNnqAGXwKwH7-1" target="vzlOpPujUNnqAGXwKwH7-9">
          <mxGeometry relative="1" as="geometry" />
        </mxCell>
        <mxCell id="vzlOpPujUNnqAGXwKwH7-27" style="edgeStyle=orthogonalEdgeStyle;rounded=0;orthogonalLoop=1;jettySize=auto;html=1;exitX=1;exitY=1;exitDx=0;exitDy=0;exitPerimeter=0;entryX=0;entryY=0.5;entryDx=0;entryDy=0;" edge="1" parent="1" source="vzlOpPujUNnqAGXwKwH7-1" target="vzlOpPujUNnqAGXwKwH7-10">
          <mxGeometry relative="1" as="geometry" />
        </mxCell>
        <mxCell id="vzlOpPujUNnqAGXwKwH7-1" value="Administrador" style="shape=umlActor;html=1;verticalLabelPosition=bottom;verticalAlign=top;align=center;" vertex="1" parent="1">
          <mxGeometry x="80" y="140" width="30" height="60" as="geometry" />
        </mxCell>
        <mxCell id="vzlOpPujUNnqAGXwKwH7-28" style="edgeStyle=orthogonalEdgeStyle;rounded=0;orthogonalLoop=1;jettySize=auto;html=1;exitX=0.5;exitY=0;exitDx=0;exitDy=0;entryX=0;entryY=0.5;entryDx=0;entryDy=0;exitPerimeter=0;" edge="1" parent="1" source="vzlOpPujUNnqAGXwKwH7-2" target="vzlOpPujUNnqAGXwKwH7-11">
          <mxGeometry relative="1" as="geometry" />
        </mxCell>
        <mxCell id="vzlOpPujUNnqAGXwKwH7-29" style="edgeStyle=orthogonalEdgeStyle;rounded=0;orthogonalLoop=1;jettySize=auto;html=1;exitX=1;exitY=0.3333333333333333;exitDx=0;exitDy=0;exitPerimeter=0;entryX=0;entryY=0.5;entryDx=0;entryDy=0;" edge="1" parent="1" source="vzlOpPujUNnqAGXwKwH7-2" target="vzlOpPujUNnqAGXwKwH7-12">
          <mxGeometry relative="1" as="geometry" />
        </mxCell>
        <mxCell id="vzlOpPujUNnqAGXwKwH7-30" style="edgeStyle=orthogonalEdgeStyle;rounded=0;orthogonalLoop=1;jettySize=auto;html=1;exitX=0.5;exitY=0.5;exitDx=0;exitDy=0;exitPerimeter=0;" edge="1" parent="1" source="vzlOpPujUNnqAGXwKwH7-2" target="vzlOpPujUNnqAGXwKwH7-13">
          <mxGeometry relative="1" as="geometry" />
        </mxCell>
        <mxCell id="vzlOpPujUNnqAGXwKwH7-31" style="edgeStyle=orthogonalEdgeStyle;rounded=0;orthogonalLoop=1;jettySize=auto;html=1;exitX=1;exitY=1;exitDx=0;exitDy=0;exitPerimeter=0;entryX=0;entryY=0.5;entryDx=0;entryDy=0;" edge="1" parent="1" source="vzlOpPujUNnqAGXwKwH7-2" target="vzlOpPujUNnqAGXwKwH7-14">
          <mxGeometry relative="1" as="geometry">
            <Array as="points">
              <mxPoint x="140" y="560" />
              <mxPoint x="140" y="595" />
            </Array>
          </mxGeometry>
        </mxCell>
        <mxCell id="vzlOpPujUNnqAGXwKwH7-32" style="edgeStyle=orthogonalEdgeStyle;rounded=0;orthogonalLoop=1;jettySize=auto;html=1;exitX=0;exitY=1;exitDx=0;exitDy=0;exitPerimeter=0;entryX=0;entryY=0.5;entryDx=0;entryDy=0;" edge="1" parent="1" source="vzlOpPujUNnqAGXwKwH7-2" target="vzlOpPujUNnqAGXwKwH7-15">
          <mxGeometry relative="1" as="geometry">
            <Array as="points">
              <mxPoint x="60" y="560" />
              <mxPoint x="60" y="650" />
            </Array>
          </mxGeometry>
        </mxCell>
        <mxCell id="vzlOpPujUNnqAGXwKwH7-2" value="&lt;div&gt;Entrenador&lt;/div&gt;&lt;div&gt;&lt;br&gt;&lt;/div&gt;" style="shape=umlActor;html=1;verticalLabelPosition=bottom;verticalAlign=top;align=center;" vertex="1" parent="1">
          <mxGeometry x="80" y="500" width="30" height="60" as="geometry" />
        </mxCell>
        <mxCell id="vzlOpPujUNnqAGXwKwH7-33" style="edgeStyle=orthogonalEdgeStyle;rounded=0;orthogonalLoop=1;jettySize=auto;html=1;exitX=0.5;exitY=0;exitDx=0;exitDy=0;exitPerimeter=0;entryX=1;entryY=0.5;entryDx=0;entryDy=0;" edge="1" parent="1" source="vzlOpPujUNnqAGXwKwH7-3" target="vzlOpPujUNnqAGXwKwH7-16">
          <mxGeometry relative="1" as="geometry" />
        </mxCell>
        <mxCell id="vzlOpPujUNnqAGXwKwH7-34" style="edgeStyle=orthogonalEdgeStyle;rounded=0;orthogonalLoop=1;jettySize=auto;html=1;exitX=0.25;exitY=0.1;exitDx=0;exitDy=0;exitPerimeter=0;entryX=1;entryY=0.5;entryDx=0;entryDy=0;" edge="1" parent="1" source="vzlOpPujUNnqAGXwKwH7-3" target="vzlOpPujUNnqAGXwKwH7-17">
          <mxGeometry relative="1" as="geometry" />
        </mxCell>
        <mxCell id="vzlOpPujUNnqAGXwKwH7-36" style="edgeStyle=orthogonalEdgeStyle;rounded=0;orthogonalLoop=1;jettySize=auto;html=1;exitX=0.5;exitY=0.5;exitDx=0;exitDy=0;exitPerimeter=0;entryX=1;entryY=0.5;entryDx=0;entryDy=0;" edge="1" parent="1" source="vzlOpPujUNnqAGXwKwH7-3" target="vzlOpPujUNnqAGXwKwH7-19">
          <mxGeometry relative="1" as="geometry" />
        </mxCell>
        <mxCell id="vzlOpPujUNnqAGXwKwH7-37" style="edgeStyle=orthogonalEdgeStyle;rounded=0;orthogonalLoop=1;jettySize=auto;html=1;exitX=0;exitY=1;exitDx=0;exitDy=0;exitPerimeter=0;entryX=1;entryY=0.5;entryDx=0;entryDy=0;" edge="1" parent="1" source="vzlOpPujUNnqAGXwKwH7-3" target="vzlOpPujUNnqAGXwKwH7-20">
          <mxGeometry relative="1" as="geometry">
            <Array as="points">
              <mxPoint x="700" y="240" />
              <mxPoint x="700" y="320" />
            </Array>
          </mxGeometry>
        </mxCell>
        <mxCell id="vzlOpPujUNnqAGXwKwH7-3" value="&lt;div&gt;Cliente&lt;/div&gt;&lt;div&gt;&lt;br&gt;&lt;/div&gt;" style="shape=umlActor;html=1;verticalLabelPosition=bottom;verticalAlign=top;align=center;" vertex="1" parent="1">
          <mxGeometry x="720" y="180" width="30" height="60" as="geometry" />
        </mxCell>
        <mxCell id="vzlOpPujUNnqAGXwKwH7-6" value="Crear cuenta" style="ellipse;whiteSpace=wrap;html=1;" vertex="1" parent="1">
          <mxGeometry x="240" y="50" width="86" height="30" as="geometry" />
        </mxCell>
        <mxCell id="vzlOpPujUNnqAGXwKwH7-7" value="Crear rutinas de entrenamiento" style="ellipse;whiteSpace=wrap;html=1;" vertex="1" parent="1">
          <mxGeometry x="233" y="90" width="100" height="40" as="geometry" />
        </mxCell>
        <mxCell id="vzlOpPujUNnqAGXwKwH7-8" value="Editar rutinas de entrenamiento" style="ellipse;whiteSpace=wrap;html=1;" vertex="1" parent="1">
          <mxGeometry x="233" y="140" width="100" height="50" as="geometry" />
        </mxCell>
        <mxCell id="vzlOpPujUNnqAGXwKwH7-9" value="Eliminar rutinas de entrenamiento" style="ellipse;whiteSpace=wrap;html=1;" vertex="1" parent="1">
          <mxGeometry x="228" y="200" width="110" height="50" as="geometry" />
        </mxCell>
        <mxCell id="vzlOpPujUNnqAGXwKwH7-10" value="Ver estadísticas de las rutinas de entrenamiento" style="ellipse;whiteSpace=wrap;html=1;" vertex="1" parent="1">
          <mxGeometry x="210" y="260" width="140" height="40" as="geometry" />
        </mxCell>
        <mxCell id="vzlOpPujUNnqAGXwKwH7-11" value="Seleccionar rutinas de entrenamiento para los clientes" style="ellipse;whiteSpace=wrap;html=1;" vertex="1" parent="1">
          <mxGeometry x="183" y="400" width="150" height="60" as="geometry" />
        </mxCell>
        <mxCell id="vzlOpPujUNnqAGXwKwH7-12" value="Ver rutinas de entrenamiento" style="ellipse;whiteSpace=wrap;html=1;" vertex="1" parent="1">
          <mxGeometry x="210" y="470" width="100" height="40" as="geometry" />
        </mxCell>
        <mxCell id="vzlOpPujUNnqAGXwKwH7-13" value="Editar rutinas de entrenamiento" style="ellipse;whiteSpace=wrap;html=1;" vertex="1" parent="1">
          <mxGeometry x="203" y="520" width="110" height="40" as="geometry" />
        </mxCell>
        <mxCell id="vzlOpPujUNnqAGXwKwH7-14" value="Eliminar rutinas de entrenamiento" style="ellipse;whiteSpace=wrap;html=1;" vertex="1" parent="1">
          <mxGeometry x="205" y="570" width="110" height="50" as="geometry" />
        </mxCell>
        <mxCell id="vzlOpPujUNnqAGXwKwH7-15" value="Ver estadísticas de las rutinas" style="ellipse;whiteSpace=wrap;html=1;" vertex="1" parent="1">
          <mxGeometry x="198" y="630" width="120" height="40" as="geometry" />
        </mxCell>
        <mxCell id="vzlOpPujUNnqAGXwKwH7-16" value="Seleccionar rutinas de entrenamiento" style="ellipse;whiteSpace=wrap;html=1;" vertex="1" parent="1">
          <mxGeometry x="500" y="90" width="150" height="40" as="geometry" />
        </mxCell>
        <mxCell id="vzlOpPujUNnqAGXwKwH7-17" value="Ver rutinas de entrenamiento" style="ellipse;whiteSpace=wrap;html=1;" vertex="1" parent="1">
          <mxGeometry x="525" y="140" width="100" height="40" as="geometry" />
        </mxCell>
        <mxCell id="vzlOpPujUNnqAGXwKwH7-18" value="Editar rutinas de entrenamiento" style="ellipse;whiteSpace=wrap;html=1;" vertex="1" parent="1">
          <mxGeometry x="520" y="190" width="110" height="40" as="geometry" />
        </mxCell>
        <mxCell id="vzlOpPujUNnqAGXwKwH7-19" value="Eliminar rutinas de entrenamiento" style="ellipse;whiteSpace=wrap;html=1;" vertex="1" parent="1">
          <mxGeometry x="520" y="240" width="110" height="50" as="geometry" />
        </mxCell>
        <mxCell id="vzlOpPujUNnqAGXwKwH7-20" value="Ver estadísticas de las rutinas de entrenamiento" style="ellipse;whiteSpace=wrap;html=1;" vertex="1" parent="1">
          <mxGeometry x="505" y="300" width="140" height="40" as="geometry" />
        </mxCell>
        <mxCell id="vzlOpPujUNnqAGXwKwH7-35" style="edgeStyle=orthogonalEdgeStyle;rounded=0;orthogonalLoop=1;jettySize=auto;html=1;exitX=0;exitY=0.3333333333333333;exitDx=0;exitDy=0;exitPerimeter=0;entryX=0.973;entryY=0.25;entryDx=0;entryDy=0;entryPerimeter=0;" edge="1" parent="1" source="vzlOpPujUNnqAGXwKwH7-3" target="vzlOpPujUNnqAGXwKwH7-18">
          <mxGeometry relative="1" as="geometry" />
        </mxCell>
        <mxCell id="vzlOpPujUNnqAGXwKwH7-38" value="SubjectName" style="shape=rect;html=1;verticalAlign=top;fontStyle=1;whiteSpace=wrap;align=center;fillColor=none;" vertex="1" parent="1">
          <mxGeometry x="150" width="530" height="680" as="geometry" />
        </mxCell>
      </root>
    </mxGraphModel>
  </diagram>
</mxfile>
